<svg width="288" height="288" viewBox="0 0 288 288" fill="none" xmlns="http://www.w3.org/2000/svg">
<g clip-path="url(#clip0_896_110)">
<path d="M144 288C223.529 288 288 252.183 288 208C288 163.817 223.529 128 144 128C64.471 128 0 163.817 0 208C0 252.183 64.471 288 144 288Z" fill="#8899A6"/>
<path d="M144 274C223.529 274 288 238.183 288 194C288 149.817 223.529 114 144 114C64.471 114 0 149.817 0 194C0 238.183 64.471 274 144 274Z" fill="#CCD6DD"/>
<path d="M261.4 189.48C261.4 223.56 208.84 251.176 144 251.176C79.1601 251.176 26.6001 223.56 26.6001 189.48C26.6001 155.416 79.1601 127.792 144 127.792C208.832 127.792 261.4 155.416 261.4 189.48Z" fill="#DD2E44"/>
<path d="M257.864 180.344C257.864 259.176 30.1362 259.176 30.1362 180.344V110.272H257.864V180.344Z" fill="#F4ABBA"/>
<path d="M143.872 145.328C72 145.328 30.128 112.272 30.128 112.272C30.128 112.272 30 119.664 30 125.752C30 125.752 30.256 164.936 50.576 164.936C70.248 164.936 68.816 183.72 81.248 185.664C93.576 187.592 94.944 178.16 110.248 178.16C125.552 178.16 128.248 195.008 143.872 195.008C162.184 195.008 163.688 178.16 178.984 178.16C194.28 178.16 196.04 187.952 206.072 185.24C218.128 181.976 212.584 164.944 237.168 164.944C257.488 164.944 257.992 127.76 257.992 127.76C257.992 121.68 257.856 112.28 257.856 112.28C257.856 112.28 215.752 145.328 143.872 145.328Z" fill="#DD2E44"/>
<path d="M261.4 101.896C261.4 135.968 208.84 163.592 144 163.592C79.1601 163.592 26.6001 135.968 26.6001 101.896C26.6001 67.8242 79.1601 40.2002 144 40.2002C208.832 40.2002 261.4 67.8242 261.4 101.896Z" fill="#EA596E"/>
<path d="M205.312 110.272C200.472 110.272 196.552 106.352 196.552 101.512V40.1999C196.552 37.8766 197.475 35.6485 199.118 34.0057C200.76 32.3629 202.988 31.4399 205.312 31.4399C207.635 31.4399 209.863 32.3629 211.506 34.0057C213.149 35.6485 214.072 37.8766 214.072 40.1999V101.512C214.072 106.352 210.152 110.272 205.312 110.272Z" fill="#FFF8E8"/>
<path d="M205 69C195.69 69 188.367 63.4933 185.411 54.2706C182.847 46.2692 181.573 28.9106 201.899 2.66056C202.306 2.13414 202.79 1.71652 203.322 1.43159C203.854 1.14666 204.424 1 205 1C205.576 1 206.146 1.14666 206.678 1.43159C207.21 1.71652 207.694 2.13414 208.101 2.66056C228.427 28.921 227.153 46.2692 224.589 54.2706C221.633 63.4933 214.31 69 205 69Z" fill="#FFBB56"/>
<path d="M144 136.544C139.16 136.544 135.24 132.624 135.24 127.784V66.4802C135.24 65.3298 135.467 64.1907 135.907 63.1279C136.347 62.0651 136.993 61.0994 137.806 60.286C138.619 59.4725 139.585 58.8273 140.648 58.387C141.711 57.9468 142.85 57.7202 144 57.7202C145.151 57.7202 146.29 57.9468 147.353 58.387C148.415 58.8273 149.381 59.4725 150.194 60.286C151.008 61.0994 151.653 62.0651 152.093 63.1279C152.534 64.1907 152.76 65.3298 152.76 66.4802V127.792C152.76 132.624 148.84 136.544 144 136.544Z" fill="#FFF8E8"/>
<path d="M144.002 80C134.693 80 127.37 73.7645 124.414 63.3211C121.843 54.2608 120.577 34.6047 140.901 4.88034C141.308 4.28424 141.792 3.81135 142.324 3.48871C142.856 3.16607 143.426 3 144.002 3C144.578 3 145.148 3.16607 145.68 3.48871C146.212 3.81135 146.695 4.28424 147.102 4.88034C167.427 34.6164 166.153 54.2608 163.589 63.3211C160.633 73.7645 153.311 80 144.002 80Z" fill="#FFDDAC"/>
<path d="M82.6882 110.272C77.8482 110.272 73.9282 106.352 73.9282 101.512V40.1999C73.9282 39.0496 74.1548 37.9104 74.595 36.8476C75.0353 35.7848 75.6805 34.8191 76.494 34.0057C77.3074 33.1922 78.2731 32.547 79.3359 32.1068C80.3987 31.6665 81.5378 31.4399 82.6882 31.4399C83.8386 31.4399 84.9777 31.6665 86.0405 32.1068C87.1033 32.547 88.069 33.1922 88.8825 34.0057C89.6959 34.8191 90.3412 35.7848 90.7814 36.8476C91.2216 37.9104 91.4482 39.0496 91.4482 40.1999V101.512C91.4482 106.352 87.5282 110.272 82.6882 110.272Z" fill="#FFF8E8"/>
<path d="M83.0018 67C73.6927 67 66.3705 61.6552 63.4143 52.7038C60.8427 44.9378 59.577 28.0897 79.9014 2.61172C80.3084 2.10078 80.7917 1.69545 81.3237 1.4189C81.8557 1.14234 82.4259 1 83.0018 1C83.5776 1 84.1479 1.14234 84.6798 1.4189C85.2118 1.69545 85.6951 2.10078 86.1021 2.61172C106.427 28.0998 105.153 44.9378 102.589 52.7038C99.6331 61.6552 92.3108 67 83.0018 67Z" fill="#FFBB56"/>
</g>
<defs>
<clipPath id="clip0_896_110">
<rect width="288" height="288" fill="white"/>
</clipPath>
</defs>
</svg>
