<svg width="40" height="40" viewBox="0 0 40 40" fill="none" xmlns="http://www.w3.org/2000/svg">
<g clip-path="url(#clip0_895_29)">
<path d="M20.0002 6.21508C20.7738 6.21508 21.3011 4.52547 21.5019 2.82148C21.7533 0.686719 20.8515 0 20.0002 0C19.1475 0 18.247 0.686719 18.497 2.82148C18.698 4.52547 19.224 6.21508 20.0002 6.21508Z" fill="url(#paint0_linear_895_29)"/>
<path d="M20.0001 33.7842C19.2239 33.7842 18.6979 35.4739 18.497 37.1784C18.247 39.3125 19.1476 39.9999 20.0001 39.9999C20.8515 39.9999 21.7533 39.3125 21.5019 37.1784C21.3011 35.4739 20.7737 33.7842 20.0001 33.7842Z" fill="url(#paint1_linear_895_29)"/>
<path d="M13.0573 8.04382C13.7285 7.65827 13.3411 5.92913 12.6622 4.35475C11.8122 2.38069 10.6887 2.23749 9.95013 2.66249C9.21153 3.08944 8.77622 4.13452 10.059 5.85842C11.0865 7.23194 12.3861 8.43186 13.0573 8.04382Z" fill="url(#paint2_linear_895_29)"/>
<path d="M26.9414 31.9561C26.2715 32.3409 26.6576 34.0701 27.3353 35.6458C28.1866 37.6192 29.3101 37.7623 30.0486 37.3367C30.7859 36.9111 31.2239 35.8647 29.9398 34.1414C28.9136 32.768 27.6126 31.5687 26.9414 31.9561Z" fill="url(#paint3_linear_895_29)"/>
<path d="M5.85675 10.0597C4.13471 8.77696 3.08901 9.21422 2.66268 9.95157C2.23643 10.6901 2.38026 11.8129 4.3537 12.6642C5.92932 13.3426 7.65784 13.7281 8.04401 13.0595C8.43143 12.3876 7.23026 11.0859 5.85675 10.0597Z" fill="url(#paint4_linear_895_29)"/>
<path d="M35.6435 27.3366C34.0705 26.657 32.3406 26.2721 31.9546 26.9408C31.5671 27.6127 32.7682 28.9142 34.1418 29.9404C35.8651 31.2232 36.9095 30.7865 37.3346 30.0486C37.7621 29.3106 37.6183 28.1873 35.6435 27.3366Z" fill="#4C52EC"/>
<path d="M6.21467 19.9995C6.21467 19.2259 4.52365 18.6992 2.82107 18.4977C0.686934 18.247 0.00146484 19.1488 0.00146484 19.9995C0.00146484 20.8527 0.686934 21.7532 2.82107 21.5032C4.52365 21.303 6.21467 20.7749 6.21467 19.9995Z" fill="url(#paint5_linear_895_29)"/>
<path d="M37.178 18.497C35.4753 18.6992 33.7856 19.2253 33.7856 19.9995C33.7856 20.775 35.4753 21.3018 37.178 21.5026C39.3135 21.754 39.9989 20.8521 39.9989 19.9995C39.9989 19.1476 39.3135 18.247 37.178 18.497Z" fill="url(#paint6_linear_895_29)"/>
<path d="M4.3537 27.3366C2.38026 28.1873 2.23643 29.3106 2.66268 30.0486C3.09034 30.7865 4.13471 31.2232 5.85675 29.9404C7.23026 28.9142 8.4301 27.6126 8.04268 26.9408C7.65784 26.2721 5.92932 26.657 4.3537 27.3366Z" fill="url(#paint7_linear_895_29)"/>
<path d="M35.6435 12.6642C37.6183 11.8128 37.7621 10.6901 37.3345 9.95151C36.9095 9.21291 35.8651 8.7769 34.1418 10.0596C32.7682 11.0859 31.5671 12.3874 31.9545 13.0593C32.3406 13.7279 34.0705 13.3425 35.6435 12.6642Z" fill="#FFD596"/>
<path d="M10.059 34.1414C8.77622 35.8647 9.21153 36.9111 9.95013 37.3367C10.69 37.7623 11.8122 37.6192 12.6622 35.6458C13.3411 34.0701 13.7286 32.3409 13.0573 31.9561C12.3875 31.5687 11.0865 32.768 10.059 34.1414Z" fill="#FFC1C1"/>
<path d="M29.94 5.85893C31.224 4.13494 30.7887 3.08994 30.0487 2.66299C29.3102 2.23799 28.1868 2.38111 27.3354 4.35525C26.6578 5.92963 26.2703 7.65877 26.9415 8.04432C27.6114 8.43229 28.9137 7.23236 29.94 5.85893Z" fill="url(#paint8_linear_895_29)"/>
<path d="M18.3698 13.7596C18.9542 13.6042 19.0086 12.2313 18.8156 10.911C18.5759 9.25816 17.7609 8.92261 17.1221 9.09621C16.4807 9.26402 15.9416 9.96183 16.5584 11.5141C17.0533 12.7542 17.7907 13.9184 18.3698 13.7596Z" fill="url(#paint9_linear_895_29)"/>
<path d="M21.6286 26.2385C21.0494 26.3953 20.9911 27.7727 21.1829 29.0912C21.4239 30.7439 22.2389 31.0788 22.879 30.9051C23.5191 30.7335 24.0581 30.0383 23.4414 28.488C22.9477 27.2479 22.2104 26.0837 21.6286 26.2385Z" fill="#D30000"/>
<path d="M12.0167 12.0422C11.5515 12.5125 11.431 13.3807 12.7436 14.4193C13.788 15.2433 15.0099 15.8835 15.4323 15.4579C15.8586 15.0308 15.2211 13.8115 14.397 12.7672C13.3618 11.4553 12.4858 11.5745 12.0167 12.0422Z" fill="url(#paint10_linear_895_29)"/>
<path d="M27.9795 27.9583C28.4486 27.4899 28.5678 26.6185 27.2565 25.5807C26.2095 24.7566 24.9928 24.119 24.5665 24.5434C24.1428 24.9684 24.7803 26.189 25.6057 27.234C26.641 28.5447 27.5117 28.4262 27.9795 27.9583Z" fill="url(#paint11_linear_895_29)"/>
<path d="M10.8962 18.7971C12.2166 18.9895 13.5927 18.9338 13.7456 18.3507C13.9037 17.7695 12.7387 17.0323 11.5001 16.5392C9.94908 15.9225 9.2558 16.4621 9.08213 17.1016C8.90978 17.7392 9.24408 18.5555 10.8962 18.7971Z" fill="url(#paint12_linear_895_29)"/>
<path d="M29.1025 21.2043C27.7834 21.0138 26.4098 21.0689 26.2518 21.6487C26.0963 22.2306 27.2599 22.9658 28.4987 23.4602C30.0509 24.0783 30.7468 23.5373 30.9179 22.8985C31.0915 22.2583 30.7571 21.444 29.1025 21.2043Z" fill="url(#paint13_linear_895_29)"/>
<path d="M11.514 23.4428C12.7527 22.9485 13.9176 22.2099 13.7608 21.6267C13.6053 21.0488 12.2293 20.9924 10.9101 21.1849C9.2567 21.4239 8.92248 22.2403 9.09482 22.8778C9.26584 23.5186 9.9617 24.0576 11.514 23.4428Z" fill="#29E147"/>
<path d="M28.4845 16.5583C27.2457 17.0559 26.0821 17.79 26.2388 18.3705C26.3944 18.9522 27.7691 19.0086 29.0895 18.8168C30.743 18.5759 31.0772 17.7595 30.9049 17.1226C30.7327 16.4807 30.0381 15.9416 28.4845 16.5583Z" fill="url(#paint14_linear_895_29)"/>
<path d="M12.7629 25.6055C11.4542 26.6389 11.5735 27.5154 12.0425 27.9813C12.5116 28.4484 13.3836 28.5683 14.4189 27.2569C15.2417 26.2126 15.8818 24.9939 15.4568 24.5669C15.0293 24.1413 13.81 24.7794 12.7629 25.6055Z" fill="url(#paint15_linear_895_29)"/>
<path d="M27.2342 14.3969C28.5455 13.361 28.4251 12.4856 27.9598 12.0199C27.492 11.5502 26.6175 11.4323 25.5834 12.7442C24.7567 13.7906 24.1192 15.0104 24.5442 15.4335C24.9692 15.8592 26.1886 15.2203 27.2342 14.3969Z" fill="url(#paint16_linear_895_29)"/>
<path d="M18.3492 26.2528C17.77 26.0973 17.0327 27.2595 16.539 28.4996C15.9209 30.0519 16.4587 30.7497 17.1014 30.9181C17.7415 31.0917 18.5565 30.7568 18.7962 29.1041C18.9893 27.7843 18.9309 26.4089 18.3492 26.2528Z" fill="url(#paint17_linear_895_29)"/>
<path d="M22.8986 9.08209C22.2598 8.90849 21.4435 9.24341 21.2051 10.8961C21.012 12.2179 21.069 13.5913 21.6495 13.7474C22.23 13.9055 22.9673 12.74 23.4609 11.5026C24.0778 9.94959 23.5413 9.25513 22.8986 9.08209Z" fill="url(#paint18_linear_895_29)"/>
<path d="M16.7607 19.9994C16.7607 21.7887 18.2107 23.2387 20.0002 23.2387C21.7883 23.2387 23.2396 21.7887 23.2396 19.9994C23.2396 18.2112 21.7883 16.7612 20.0002 16.7612C18.2107 16.7612 16.7607 18.2112 16.7607 19.9994Z" fill="url(#paint19_linear_895_29)"/>
</g>
<defs>
<linearGradient id="paint0_linear_895_29" x1="19.9996" y1="0" x2="19.9996" y2="6.21508" gradientUnits="userSpaceOnUse">
<stop stop-color="#CEFFC1"/>
<stop offset="1" stop-color="#24B600"/>
</linearGradient>
<linearGradient id="paint1_linear_895_29" x1="19.9996" y1="33.7842" x2="19.9996" y2="39.9999" gradientUnits="userSpaceOnUse">
<stop stop-color="#FF3D00"/>
<stop offset="1" stop-color="#4200FF"/>
</linearGradient>
<linearGradient id="paint2_linear_895_29" x1="9.26041" y1="2.4435" x2="13.3762" y2="8.10266" gradientUnits="userSpaceOnUse">
<stop stop-color="#FF8E8E"/>
<stop offset="1" stop-color="#EB00FF"/>
</linearGradient>
<linearGradient id="paint3_linear_895_29" x1="26.6239" y1="31.8973" x2="30.7396" y2="37.5564" gradientUnits="userSpaceOnUse">
<stop stop-color="#BB29FF"/>
<stop offset="1" stop-color="#EABDFF"/>
</linearGradient>
<linearGradient id="paint4_linear_895_29" x1="2.44367" y1="8.48892" x2="8.10283" y2="13.3764" gradientUnits="userSpaceOnUse">
<stop stop-color="#EDFF82"/>
<stop offset="1" stop-color="#95AD00"/>
</linearGradient>
<linearGradient id="paint5_linear_895_29" x1="-1.41458" y1="20.0644" x2="7.07416" y2="20.0644" gradientUnits="userSpaceOnUse">
<stop stop-color="#FF0000"/>
<stop offset="1" stop-color="#FAFF00"/>
</linearGradient>
<linearGradient id="paint6_linear_895_29" x1="40.0002" y1="19.9358" x2="33.8265" y2="19.9358" gradientUnits="userSpaceOnUse">
<stop stop-color="#FF0000"/>
<stop offset="1" stop-opacity="0"/>
<stop offset="1" stop-color="#CF6464"/>
</linearGradient>
<linearGradient id="paint7_linear_895_29" x1="8.74592" y1="26.6238" x2="2.44367" y2="30.7396" gradientUnits="userSpaceOnUse">
<stop stop-color="#00FFD1"/>
<stop offset="1" stop-color="#BDFFF3"/>
</linearGradient>
<linearGradient id="paint8_linear_895_29" x1="30.7398" y1="2.44392" x2="26.624" y2="8.10309" gradientUnits="userSpaceOnUse">
<stop stop-color="#F1C0C0"/>
<stop offset="1" stop-color="#FF0F00"/>
</linearGradient>
<linearGradient id="paint9_linear_895_29" x1="17.6012" y1="9.05518" x2="17.6012" y2="13.7742" gradientUnits="userSpaceOnUse">
<stop stop-color="#300FFF"/>
<stop offset="1" stop-color="#12E600"/>
</linearGradient>
<linearGradient id="paint10_linear_895_29" x1="13.631" y1="11.7173" x2="13.631" y2="15.5934" gradientUnits="userSpaceOnUse">
<stop stop-color="#CE41FF"/>
<stop offset="1" stop-color="#16C671"/>
</linearGradient>
<linearGradient id="paint11_linear_895_29" x1="24.4375" y1="24.4371" x2="28.296" y2="28.2956" gradientUnits="userSpaceOnUse">
<stop offset="0.040647" stop-color="#6CFFFF"/>
<stop offset="1" stop-color="#F40058"/>
</linearGradient>
<linearGradient id="paint12_linear_895_29" x1="8.10306" y1="16.206" x2="14.4053" y2="18.907" gradientUnits="userSpaceOnUse">
<stop stop-color="#73D6DC"/>
<stop offset="1" stop-color="#3906CC"/>
</linearGradient>
<linearGradient id="paint13_linear_895_29" x1="30.9966" y1="21.0931" x2="24.1799" y2="22.3793" gradientUnits="userSpaceOnUse">
<stop stop-color="#02FF3A"/>
<stop offset="1" stop-color="#DB00FF"/>
</linearGradient>
<linearGradient id="paint14_linear_895_29" x1="28.5851" y1="16.2866" x2="28.5851" y2="18.9157" gradientUnits="userSpaceOnUse">
<stop stop-color="#FF4444"/>
<stop offset="1" stop-color="#120FB6"/>
</linearGradient>
<linearGradient id="paint15_linear_895_29" x1="15.048" y1="24.8232" x2="11.704" y2="28.2959" gradientUnits="userSpaceOnUse">
<stop stop-color="#FA0C62"/>
<stop offset="1" stop-color="#F2DD1C"/>
</linearGradient>
<linearGradient id="paint16_linear_895_29" x1="28.2958" y1="11.704" x2="24.4373" y2="16.3342" gradientUnits="userSpaceOnUse">
<stop stop-color="#FF9191"/>
<stop offset="1" stop-color="#4EB64C"/>
</linearGradient>
<linearGradient id="paint17_linear_895_29" x1="17.5808" y1="26.2388" x2="17.5808" y2="30.9592" gradientUnits="userSpaceOnUse">
<stop stop-color="#E4B53A"/>
<stop offset="1" stop-color="#0497D6"/>
</linearGradient>
<linearGradient id="paint18_linear_895_29" x1="23.4084" y1="8.48887" x2="21.0933" y2="13.7622" gradientUnits="userSpaceOnUse">
<stop stop-color="#7A3CFF"/>
<stop offset="1" stop-color="#FF0E0E"/>
</linearGradient>
<linearGradient id="paint19_linear_895_29" x1="26.431" y1="16.7202" x2="11.8972" y2="23.2797" gradientUnits="userSpaceOnUse">
<stop stop-color="#FF0000"/>
<stop offset="1" stop-color="#AF31C4"/>
</linearGradient>
<clipPath id="clip0_895_29">
<rect width="40" height="40" fill="white"/>
</clipPath>
</defs>
</svg>
