<svg width="40" height="40" viewBox="0 0 40 40" fill="none" xmlns="http://www.w3.org/2000/svg">
<path d="M6.14056 26.2906C6.14056 26.2906 5.56868 27.3469 5.52493 28.0063C5.48118 28.6657 5.92181 34.0344 6.88743 35.2219C7.85306 36.4094 10.8031 39.5344 19.5124 39.6219C28.2218 39.7094 32.6656 35.75 33.1499 34.9594C33.6343 34.1688 34.2499 30.4719 34.2937 27.5688C34.3374 24.6657 18.8531 26.6875 18.8531 26.6875L6.14056 26.2906Z" fill="#FBB75A"/>
<path d="M19.3376 33.3281C27.0813 33.5469 34.2501 28.7969 34.2501 28.7969L34.0313 31.1719C34.0313 31.1719 28.1376 35.7031 19.4688 35.4844C10.8001 35.2656 5.7876 31.1719 5.7876 31.1719L5.56885 29.1031C5.56885 29.1031 12.5657 33.1344 19.3376 33.3281Z" fill="#F2A05B"/>
<path d="M20.3063 14.85C17.0063 14.8656 7.06566 15.6406 6.05316 19.8656C5.04066 24.0906 5.17191 28.05 5.35003 28.4C5.52503 28.7531 5.91878 28.1437 6.84691 28.4875C8.03441 28.9281 7.94691 32.1375 10.1032 32.7093C12.2594 33.2812 12.3032 30.3343 14.7657 30.5093C17.2282 30.6843 16.0844 33.9875 19.3407 34.0281C22.6844 34.0718 21.4438 30.7593 23.7844 30.4656C26.1 30.1718 24.8844 33.7656 28.0969 33.2812C31.3094 32.7968 30.9375 28.225 32.5813 27.7406C33.8282 27.375 33.7219 28.6 34.3125 28.5468C34.7969 28.5031 34.6063 21.8 34.1657 20.3062C33.725 18.8125 29.5875 14.8062 20.3063 14.85Z" fill="url(#paint0_radial_896_294)"/>
<path d="M10.2971 24.2876C7.95643 23.3001 7.20018 22.3657 6.82205 21.8907C6.55955 21.5595 6.16268 21.4282 5.9408 21.6938C5.72205 21.9563 5.83143 22.2438 6.07205 22.5282C6.31268 22.8157 7.3908 24.4626 10.1627 25.3657C12.6002 26.1594 14.2096 26.2688 14.8252 26.2907C15.5096 26.3157 15.7939 25.4563 14.8908 25.3438C13.8564 25.2157 12.8502 25.3657 10.2971 24.2876Z" fill="#FDFFFF"/>
<path d="M17.3282 25.6595C16.7282 25.6438 16.5063 25.9813 16.5063 26.247C16.5063 26.5688 16.7845 26.747 17.2688 26.7751C17.7532 26.8032 18.0313 26.4813 18.0313 26.2626C18.0345 26.0407 17.9001 25.672 17.3282 25.6595Z" fill="#FDFFFF"/>
<path d="M7.85611 27.7438C7.58111 28.0125 7.69673 28.325 7.82798 28.4875C8.04361 28.7531 8.43111 28.7969 8.63111 28.6406C8.85923 28.4656 8.83111 28.1406 8.68736 27.925C8.50298 27.6438 8.12798 27.475 7.85611 27.7438Z" fill="#FCE9CA"/>
<path d="M8.62509 28.9C8.24697 29.1125 8.41572 29.5844 8.61884 29.9719C9.05322 30.7969 9.19072 31.4688 9.69072 31.8C10.197 32.1344 10.822 31.9032 10.7626 31.5563C10.6688 31.0032 10.3282 31.4219 10.0345 30.7219C9.91259 30.4313 9.66259 29.9657 9.37197 29.3375C9.20322 28.9688 9.00634 28.6844 8.62509 28.9Z" fill="#FCE9CA"/>
<path d="M17.4314 31.1282C17.0595 31.3938 17.2845 32.0657 17.7533 32.5938C18.222 33.122 18.8814 33.547 19.6001 33.3563C20.1564 33.2095 20.1126 32.5938 19.7314 32.4188C19.3501 32.2438 18.897 32.347 18.4845 31.8032C18.2845 31.5376 18.0033 30.7188 17.4314 31.1282Z" fill="#FCE9CA"/>
<path d="M26.2626 30.5499C25.8938 30.8218 26.2407 31.3874 26.4688 31.778C26.697 32.1686 27.4501 32.9186 27.8907 32.4749C28.2126 32.1499 27.6063 31.7561 27.322 31.3311C27.1095 31.0093 26.7532 30.1843 26.2626 30.5499Z" fill="#FCE9CA"/>
<path d="M25.6279 29.5313C25.3842 29.7094 25.4217 29.9906 25.5092 30.1469C25.6279 30.3531 26.0092 30.4406 26.2279 30.25C26.4404 30.0656 26.3154 29.7656 26.1998 29.6188C26.0842 29.4719 25.7904 29.4125 25.6279 29.5313Z" fill="#FCE9CA"/>
<path d="M27 12.3657C27 12.3657 24.5843 15.697 24.7375 16.3595C24.8562 16.8813 25.4187 17.4407 26.6218 17.522C27.825 17.6032 28.5781 17.0438 28.75 16.5126C28.9812 15.8063 28.2281 13.5563 27.9562 13.1095C27.5718 12.4751 27.225 12.3845 27 12.3657Z" fill="#EE5B4A"/>
<path d="M31.9938 15.3718L29.397 19.0093C29.397 19.0093 29.4751 19.8062 30.2563 20.15C31.072 20.5062 32.7376 20.5281 33.2157 19.8312C33.7595 19.0406 33.5251 17.6812 33.2501 16.8593C33.0376 16.2156 32.5876 15.3031 31.9938 15.3718Z" fill="#EE5B4A"/>
<path d="M27.597 19.4812L25.0845 23.3406C25.0845 23.3406 25.0564 24.2968 26.1908 24.5624C27.0908 24.7718 28.7439 24.7812 29.3595 24.2531C29.9752 23.7249 29.9252 22.6624 29.3939 21.5468C28.8127 20.3343 27.9502 19.1937 27.597 19.4812Z" fill="#EE5B4A"/>
<path d="M21.3407 20.4282L18.0501 24.4095C18.0501 24.4095 17.9845 25.1782 18.797 25.5532C19.8407 26.0376 21.447 26.0126 22.2626 25.5751C22.9782 25.1907 23.0876 23.972 22.8282 23.2095C22.6157 22.5876 22.322 22.0595 22.2126 21.772C22.1032 21.4876 21.7345 20.6032 21.3407 20.4282Z" fill="#EE5B4A"/>
<path d="M14.2562 19.0845L11.4531 23.4626C11.4531 23.4626 11.5406 24.4845 12.6094 24.6938C13.5312 24.8751 15.05 24.9813 15.5781 24.3188C16.1062 23.6563 16.1281 21.9751 15.6219 20.7876C15.1156 19.6032 14.675 19.2407 14.2562 19.0845Z" fill="#EE5B4A"/>
<path d="M9.9999 14.9562L9.6249 14.8218L7.1249 18.7718C7.1249 18.7718 7.05302 19.4687 7.63427 19.8405C8.18427 20.1937 9.93427 20.3687 10.878 19.9062C11.8249 19.4437 11.7561 17.8937 11.0968 16.5624C10.4874 15.328 9.9999 14.9562 9.9999 14.9562Z" fill="#EE5B4A"/>
<path d="M14.5873 12.0405L12.1592 16.2312C12.1592 16.2312 12.2654 16.7749 13.1029 17.0124C13.9248 17.2468 14.9998 17.203 15.5498 16.778C16.1029 16.353 16.2498 15.4187 15.9967 14.3343C15.8248 13.5937 15.1592 12.253 14.5873 12.0405Z" fill="#EE5B4A"/>
<path d="M12.1907 20.6125C11.6688 21.7375 10.9375 23.4062 11.7719 23.9562C12.6063 24.5062 13.8407 23.625 14.2782 21.975C14.7157 20.325 14.7844 19.5 14.3657 19.1469C13.95 18.8 12.8719 19.1406 12.1907 20.6125Z" fill="#FD6F42"/>
<path d="M9.35926 14.6937C8.76551 14.7312 8.08426 15.6499 7.74363 16.553C7.40301 17.4562 7.00613 18.578 7.14988 18.9405C7.29363 19.303 8.27176 19.7437 8.69051 18.9749C9.10926 18.2062 9.02488 17.178 9.11863 16.653C9.28426 15.728 9.99988 14.9593 9.99988 14.9593C9.99988 14.9593 9.75613 14.6687 9.35926 14.6937Z" fill="#FD6F42"/>
<path d="M14.0658 11.8594C13.6408 11.8844 13.2377 12.0625 12.8752 13.25C12.6783 13.9 12.1221 14.6532 12.0689 15.3625C12.0158 16.075 12.1752 16.2594 12.1752 16.2594C12.1752 16.2594 13.1939 16.4563 13.5908 15.6625C13.9721 14.9032 13.8533 14.1282 13.9814 13.7688C14.1096 13.4063 14.6939 12.0907 14.6939 12.0907C14.6939 12.0907 14.4377 11.8407 14.0658 11.8594Z" fill="#FD6F42"/>
<path d="M26.8968 12.3436C26.4499 12.3218 25.7968 12.8749 25.3812 13.8624C24.9624 14.8499 24.7093 15.9218 24.728 16.2374C24.7468 16.553 26.3968 16.5905 26.978 15.6374C27.3437 15.0374 27.3249 13.428 27.2843 13.0405C27.2468 12.6499 27.3624 12.3655 26.8968 12.3436Z" fill="#FF6E45"/>
<path d="M31.8564 15.3594C31.472 15.4219 30.5657 15.6438 29.8345 17.2219C29.3782 18.2063 29.2407 19.1531 29.572 19.2906C29.9032 19.4281 30.8063 19.5656 31.2188 19.05C31.6313 18.5344 32.0876 17.1313 32.1907 16.4313C32.2907 15.7375 32.3595 15.2781 31.8564 15.3594Z" fill="#FF6E45"/>
<path d="M25.1781 23.6061C25.6718 24.0561 26.6124 23.6311 26.9499 23.2311C27.4656 22.6155 27.8968 21.328 27.9187 20.428C27.9343 19.7749 28.0843 19.4061 27.5124 19.4374C27.3156 19.4499 26.7749 19.5468 26.1499 20.4718C25.6531 21.203 25.3687 21.7811 25.2031 22.4968C25.0624 23.0905 25.0343 23.4749 25.1781 23.6061Z" fill="#FF6E45"/>
<path d="M20.6904 20.2061C20.3717 20.1936 19.7654 20.3811 19.1404 21.4155C18.5123 22.4499 17.7998 24.1218 18.1061 24.6374C18.4154 25.153 19.1717 25.2093 19.9436 24.8905C20.7123 24.5718 21.2404 23.4593 21.2842 23.0093C21.3279 22.5593 21.6248 20.6343 21.3717 20.4468C21.1186 20.2624 20.9654 20.2186 20.6904 20.2061Z" fill="#FF6E45"/>
<path d="M32.5938 8.13442C32.5938 12.4876 25.6376 16.3469 20.2157 16.3469C14.7938 16.3469 7.89697 12.2532 7.89697 7.90005C7.89697 3.54692 14.697 0.0812988 20.1157 0.0812988C25.5345 0.0812988 32.5938 3.7813 32.5938 8.13442Z" fill="url(#paint1_radial_896_294)"/>
<path d="M22.7471 9.72506C22.8565 9.57194 24.9158 9.74381 25.1002 9.79069C25.1877 9.81256 25.1658 17.6657 25.0565 17.7313C24.9627 17.7876 24.594 18.1282 23.8908 18.1282C23.1877 18.1282 22.7908 17.8876 22.6596 17.7969C22.5283 17.7094 22.6377 9.87819 22.7471 9.72506Z" fill="#FEA8A8"/>
<path d="M18.9658 11.6625C18.8814 11.7344 18.8564 19.3187 18.922 19.3844C18.9877 19.45 19.4283 19.8469 20.2846 19.825C21.1439 19.8031 21.5377 19.4937 21.6033 19.4281C21.6689 19.3625 21.647 11.6625 21.5814 11.6187C21.5158 11.5719 19.097 11.55 18.9658 11.6625Z" fill="#EC7FAE"/>
<path d="M15.2689 10.0343C15.1626 10.0968 15.1595 17.7999 15.2032 17.8655C15.247 17.9312 15.8845 18.153 16.4782 18.153C17.072 18.153 17.6439 18.0218 17.7095 17.9562C17.7751 17.8905 17.7314 10.1249 17.6657 10.0374C17.6001 9.9499 15.3782 9.96865 15.2689 10.0343Z" fill="#93C7EE"/>
<path d="M20.3061 4.6875C20.4373 4.6875 20.6155 5.72187 20.8561 6.31562C21.0967 6.90937 21.9998 8.38437 21.6467 9.65937C21.2623 11.0562 19.0842 11.3281 18.6123 9.50625C18.2811 8.23125 19.403 6.90937 19.6905 6.31562C19.8873 5.90625 20.2155 4.6875 20.3061 4.6875Z" fill="url(#paint2_radial_896_294)"/>
<path d="M23.8467 3.0813C23.8467 3.0813 23.5217 4.56255 23.1217 5.1938C22.5498 6.09692 22.1873 7.3313 22.6373 8.34067C23.2092 9.61567 25.4998 9.55005 25.5404 7.37192C25.5623 6.22817 25.0623 5.62192 24.7061 4.97505C24.4623 4.53442 23.9998 3.12505 23.8467 3.0813Z" fill="url(#paint3_radial_896_294)"/>
<path d="M16.5654 3.32495C16.5654 3.32495 15.9717 4.79995 15.5967 5.34995C15.2217 5.89995 14.5561 7.19683 14.9373 8.2312C15.3998 9.48433 17.4467 9.63433 17.8404 7.99058C18.1029 6.89058 17.5311 6.0562 17.1373 5.15308C16.8904 4.58433 16.5654 3.32495 16.5654 3.32495Z" fill="url(#paint4_radial_896_294)"/>
<defs>
<radialGradient id="paint0_radial_896_294" cx="0" cy="0" r="1" gradientUnits="userSpaceOnUse" gradientTransform="translate(20.4113 19.6015) rotate(91.1173) scale(14.3077 31.1469)">
<stop offset="0.445" stop-color="#FEEAC9"/>
<stop offset="0.565" stop-color="#FEE7C2"/>
<stop offset="0.741" stop-color="#FEDEAE"/>
<stop offset="0.952" stop-color="#FFCF8D"/>
<stop offset="1" stop-color="#FFCB85"/>
</radialGradient>
<radialGradient id="paint1_radial_896_294" cx="0" cy="0" r="1" gradientUnits="userSpaceOnUse" gradientTransform="translate(20.2473 8.2137) scale(12.195 7.50846)">
<stop offset="0.034" stop-color="#FFE265" stop-opacity="0.7"/>
<stop offset="0.112" stop-color="#FFE575" stop-opacity="0.643"/>
<stop offset="0.417" stop-color="#FFF0B0" stop-opacity="0.422"/>
<stop offset="0.677" stop-color="#FFF8DB" stop-opacity="0.234"/>
<stop offset="0.88" stop-color="#FFFDF5" stop-opacity="0.087"/>
<stop offset="1" stop-color="white" stop-opacity="0"/>
</radialGradient>
<radialGradient id="paint2_radial_896_294" cx="0" cy="0" r="1" gradientUnits="userSpaceOnUse" gradientTransform="translate(20.2839 11.2431) scale(6.07125 6.07125)">
<stop offset="0.17" stop-color="#FF9616"/>
<stop offset="0.654" stop-color="#FFD429"/>
</radialGradient>
<radialGradient id="paint3_radial_896_294" cx="0" cy="0" r="1" gradientUnits="userSpaceOnUse" gradientTransform="translate(24.1286 9.63349) scale(5.95125 5.95125)">
<stop offset="0.17" stop-color="#FF9616"/>
<stop offset="0.654" stop-color="#FFD429"/>
</radialGradient>
<radialGradient id="paint4_radial_896_294" cx="0" cy="0" r="1" gradientUnits="userSpaceOnUse" gradientTransform="translate(16.5067 9.63183) scale(5.89156 5.89156)">
<stop offset="0.17" stop-color="#FF9616"/>
<stop offset="0.654" stop-color="#FFD429"/>
</radialGradient>
</defs>
</svg>
