<svg width="40" height="40" viewBox="0 0 40 40" fill="none" xmlns="http://www.w3.org/2000/svg">
<g clip-path="url(#clip0_896_89)">
<path d="M0 40.0001L11.5277 13.3396L26.6605 28.4724L0 40.0001Z" fill="#E94A96"/>
<path d="M0 40.0001L19.0941 20.906L26.6605 28.4724L0 40.0001Z" fill="#C911A0"/>
<path d="M21.4574 16.6962L23.3032 18.542L28.6218 13.2234L26.776 11.3776L21.4574 16.6962Z" fill="#FFB42B"/>
<path d="M22.3808 17.62L23.3037 18.543L28.6223 13.2244L27.6993 12.3015L22.3808 17.62Z" fill="#FF7C18"/>
<path d="M24.1619 24.261L22.3159 22.4151C23.6127 21.1183 25.2647 20.2126 27.0932 19.7959C28.7735 19.413 30.5622 19.4667 32.1298 19.9469L31.3652 22.443C29.3133 21.8143 26.2901 22.1327 24.1619 24.261Z" fill="#FF7C18"/>
<path d="M17.5852 17.6843L15.7393 15.8383C17.8675 13.71 18.1859 10.6869 17.5572 8.63497L20.0533 7.87036C20.5335 9.43794 20.5871 11.2267 20.2043 12.9071C19.7876 14.7354 18.882 16.3875 17.5852 17.6843Z" fill="#FFB42B"/>
<path d="M11.7816 13.5934L11.5277 13.3396L9.75781 17.433L12.5302 34.5821L15.002 33.5133L11.7816 13.5934Z" fill="#DAFF18"/>
<path d="M7.69166 36.6743L5.98979 26.1475L4.06494 30.599L5.21994 37.7429L7.69166 36.6743Z" fill="#DAFF18"/>
<path d="M21.1237 22.9358L17.9692 19.7812L19.8504 31.417L22.3221 30.3482L21.1237 22.9358Z" fill="#9FBD00"/>
<path d="M33.7532 12.471L31.3181 11.8853L29.5019 13.6102L28.7914 11.2084L26.3896 10.4979L28.1145 8.6818L27.5288 6.24656L29.964 6.83227L31.7802 5.10742L32.4906 7.50922L34.8924 8.21969L33.1675 10.0358L33.7532 12.471Z" fill="#FFB42B"/>
<path d="M33.7533 12.4711L31.3181 11.8854L29.502 13.6102L28.7915 11.2084L32.4906 7.50928L34.8924 8.21975L33.1676 10.0358L33.7533 12.4711Z" fill="#FF867E"/>
<path d="M38.8608 25.1884L36.4255 24.6027L34.6093 26.3276L33.899 23.9256L31.4971 23.2153L33.222 21.3992L32.6363 18.9638L35.0715 19.5496L36.8877 17.8247L37.5982 20.2265L40 20.937L38.2751 22.7531L38.8608 25.1884Z" fill="#EDFF18"/>
<path d="M14.8115 1.13922L15.3973 3.57445L13.6724 5.39062L16.0742 6.10102L16.7846 8.50289L18.6007 6.77797L21.036 7.36375L20.4503 4.92844L22.1752 3.11227L19.7734 2.40188L19.0629 0L17.2468 1.72484L14.8115 1.13922Z" fill="#DE11FF"/>
<path d="M12.5303 34.582L15.0021 33.5133L13.817 26.1831L11.5405 28.4595L12.5303 34.582Z" fill="#6D8F00"/>
<path d="M5.21996 37.7431L7.69168 36.6745L7.0841 32.9163L4.80762 35.1927L5.21996 37.7431Z" fill="#6D8F00"/>
<path d="M22.3226 30.3481L21.1241 22.9357L19.0944 20.906L18.2827 21.7177L19.8508 31.4169L22.3226 30.3481Z" fill="#6D8F00"/>
</g>
<defs>
<clipPath id="clip0_896_89">
<rect width="40" height="40" fill="white"/>
</clipPath>
</defs>
</svg>
