<svg xmlns="http://www.w3.org/2000/svg" shape-rendering="geometricPrecision" text-rendering="geometricPrecision" image-rendering="optimizeQuality" fill-rule="evenodd" clip-rule="evenodd" viewBox="0 0 448 511.654"><path fill="#F91E89" d="M418.448 428.637c-101.804 39.089-258.048 38.246-382.498.634L228.773 11.35l189.675 417.287z"/><path fill="#FF5A9A" d="M418.448 428.637c-23.176 8.898-49.18 15.722-76.982 20.518L185.925 104.216l42.848-92.866 189.675 417.287z"/><path fill="#FFBD49" fill-rule="nonzero" d="M19.339 480.47c-14.64-4.699-22.698-20.379-17.999-35.018 4.699-14.64 20.378-22.698 35.018-18 58.267 18.732 124.959 28.592 191.46 28.567 64.05-.025 127.7-9.223 183.169-28.503 14.52-5.061 30.394 2.607 35.455 17.127 5.06 14.519-2.608 30.393-17.127 35.454-61.413 21.346-131.405 31.529-201.497 31.557-72.255.028-144.874-10.737-208.479-31.184z"/><circle fill="#FFC751" cx="227.199" cy="41.587" r="41.587"/><path fill="#FFE059" d="M227.199 0l.231.003c8.091 6.805 13.236 17.002 13.236 28.402 0 20.489-16.61 37.099-37.099 37.099a37.04 37.04 0 01-11.627-1.861 41.377 41.377 0 01-6.328-22.056C185.612 18.619 204.231 0 227.199 0z"/><path fill="#FFCA50" d="M286.893 455.823c-35.327 2.672-72.298 2.502-109.2-.456 5.899-24.66 28.081-42.993 54.548-42.993 26.629 0 48.919 18.56 54.652 43.449zM42.761 414.507l46.976-101.814c18.269 9.247 30.797 28.196 30.797 50.071 0 30.979-25.112 56.091-56.09 56.091a55.907 55.907 0 01-21.683-4.348zm84.63-183.424l61.736-133.806c19.983 13.381 33.142 36.161 33.142 62.017 0 41.194-33.393 74.587-74.587 74.587a74.59 74.59 0 01-20.291-2.798zm174.256-59.408l46.181 101.597a56.021 56.021 0 01-17.816 2.889c-30.977 0-56.089-25.112-56.089-56.09 0-20.628 11.136-38.653 27.724-48.396zm69.257 152.366l46.393 102.064a55.864 55.864 0 01-25.186 5.961c-30.977 0-56.089-25.112-56.089-56.091 0-23.472 14.419-43.571 34.882-51.934zm-93.74 9.058c17.844 0 32.307 14.464 32.307 32.307 0 17.844-14.463 32.307-32.307 32.307-17.843 0-32.307-14.463-32.307-32.307 0-17.843 14.464-32.307 32.307-32.307zM176.75 249.861c26.599 0 48.161 21.562 48.161 48.162 0 26.599-21.562 48.161-48.161 48.161-26.6 0-48.162-21.562-48.162-48.161 0-26.6 21.562-48.162 48.162-48.162z"/></svg>